<svg width="115" height="39" viewBox="0 0 115 39" fill="none" xmlns="http://www.w3.org/2000/svg">
<path d="M23.018 1C24.6921 1 26.078 1.54091 27.1895 2.60953C28.3284 3.67816 28.8773 5.01064 28.8773 6.59378C28.8773 8.17693 28.3284 9.48302 27.1895 10.578C26.078 11.6467 24.6921 12.1876 23.018 12.1876L28.5421 18.0188H23.8124L19.4091 12.759V18.0188H16.5V1.0132H23.018V1ZM23.018 9.54898C24.7333 9.54898 25.9682 8.30885 25.9682 6.58059C25.9682 4.85232 24.7333 3.61219 23.018 3.61219H19.4091V9.53579H23.018V9.54898Z" fill="#1E40AF"/>
<path d="M29.3571 14.1834C29.641 15.526 30.7476 16.2644 32.2458 16.2644C33.2739 16.2644 34.0475 15.8904 34.5763 15.1711L36.1822 16.0918C35.3009 17.3768 33.979 18.0193 32.236 18.0193C30.7769 18.0193 29.5823 17.5782 28.6814 16.7151C27.7805 15.8328 27.3301 14.7204 27.3301 13.3778C27.3301 12.0352 27.7805 10.9612 28.6618 10.0789C29.5431 9.17746 30.6986 8.73633 32.0891 8.73633C33.4012 8.73633 34.4882 9.19664 35.3303 10.0981C36.1822 10.9995 36.6131 12.112 36.6131 13.397C36.6131 13.5888 36.5935 13.8573 36.5445 14.193H29.3669L29.3571 14.1834ZM34.6448 12.6298C34.3707 11.2009 33.3425 10.4529 32.0695 10.4529C30.63 10.4529 29.6215 11.2872 29.3473 12.6298H34.6448Z" fill="#1E40AF"/>
<path d="M71.1305 14.1834C71.4145 15.526 72.521 16.2644 74.0192 16.2644C75.0474 16.2644 75.821 15.8904 76.3497 15.1711L77.9556 16.0918C77.0743 17.3768 75.7524 18.0193 74.0094 18.0193C72.5504 18.0193 71.3557 17.5782 70.4548 16.7151C69.554 15.8328 69.1035 14.7204 69.1035 13.3778C69.1035 12.0352 69.554 10.9612 70.4353 10.0789C71.3165 9.17746 72.472 8.73633 73.8625 8.73633C75.1747 8.73633 76.2616 9.19664 77.1037 10.0981C77.9556 10.9995 78.3865 12.112 78.3865 13.397C78.3865 13.5888 78.3669 13.8573 78.318 14.193H71.1403L71.1305 14.1834ZM76.4183 12.6298C76.1441 11.2009 75.1159 10.4529 73.8429 10.4529C72.4035 10.4529 71.3949 11.2872 71.1207 12.6298H76.4183Z" fill="#1E40AF"/>
<path d="M69.104 8.39717H66.1446V14.1563C66.1446 15.6938 67.1441 15.6677 69.104 15.5765V17.9088C65.1582 18.3909 63.5617 17.3094 63.5617 14.1693V8.41021H61.3682V5.90851H63.5617V3.31562L66.1446 2.54688V5.90851H69.104V8.41021V8.39717Z" fill="#1E40AF"/>
<path d="M40.9597 12.5474C42.4541 12.845 44.3905 13.4114 44.3484 15.3026C44.3484 16.1474 43.9801 16.8193 43.2645 17.2993C42.5488 17.7793 41.6543 18.0193 40.5703 18.0193C38.6549 18.0193 37.2342 17.2417 36.6133 15.9554L38.4129 15.005C38.7391 15.8498 39.4548 16.2818 40.5598 16.2818C41.6648 16.2818 42.212 15.9458 42.212 15.293C42.212 14.7266 41.4017 14.3906 40.3703 14.1602C38.918 13.8242 36.9606 13.2962 37.0027 11.4339C37.0027 10.6179 37.3289 9.9651 38.013 9.47551C38.6865 8.97632 39.5495 8.73633 40.5493 8.73633C42.1594 8.73633 43.4539 9.42751 44.1379 10.5795L42.3699 11.4819C42.0437 10.8099 41.4228 10.4739 40.5493 10.4739C39.76 10.4739 39.139 10.7907 39.139 11.4147C39.139 12.0003 39.9494 12.2978 40.9597 12.5666V12.5474Z" fill="#1E40AF"/>
<path d="M45.7058 16.6767C44.808 15.7753 44.3496 14.682 44.3496 13.3778C44.3496 12.0736 44.808 10.9804 45.7058 10.0789C46.6035 9.17746 47.7113 8.73633 48.9911 8.73633C50.2709 8.73633 51.3787 9.17746 52.2764 10.0789C53.1742 10.9804 53.6326 12.0736 53.6326 13.3778C53.6326 14.682 54.4062 28.4718 51.7321 25.7551C52.5057 12.6042 50.29 18.0193 48.9911 18.0193C47.6922 18.0193 46.6035 17.5782 45.7058 16.6767ZM48.9911 16.1685C49.7647 16.1685 50.4141 15.9 50.9394 15.3725C51.4647 14.8451 51.7321 14.1738 51.7321 13.3778C51.7321 12.5819 51.4647 11.9106 50.9394 11.3831C50.4141 10.8557 49.7647 10.5872 48.9911 10.5872C48.2175 10.5872 47.5681 10.8557 47.0428 11.3831C46.5175 11.9106 46.2501 12.5819 46.2501 13.3778C46.2501 14.1738 46.5175 14.8451 47.0428 15.3725C47.5681 15.9 48.2175 16.1685 48.9911 16.1685Z" fill="#1E40AF"/>
<path d="M54.857 16.6649C54.046 15.7648 53.6318 14.6732 53.6318 13.3709C53.6318 12.0686 54.046 10.977 54.857 10.0769C55.668 9.1768 56.6688 8.73633 57.825 8.73633C58.9811 8.73633 59.9819 9.1768 60.7929 10.0769C61.6039 10.977 62.1412 13.6227 62.1412 14.925C62.1412 16.4698 62.0665 18.0332 61.3192 18.0193C60.6204 14.1572 60.1711 17.8001 58.2733 18.0193C57.0999 18.0193 55.668 17.565 54.857 16.6649ZM57.825 16.1574C58.5238 16.1574 59.1105 15.8892 59.585 15.3626C60.0596 14.8359 60.3011 14.1656 60.3011 13.3709C60.3011 12.5761 60.0596 11.9058 59.585 11.3792C59.1105 10.8525 58.5238 10.5844 57.825 10.5844C57.1261 10.5844 56.5394 10.8525 56.0649 11.3792C55.5903 11.9058 55.3488 12.5761 55.3488 13.3709C55.3488 14.1656 55.5903 14.8359 56.0649 15.3626C56.5394 15.8892 57.1261 16.1574 57.825 16.1574Z" fill="#1E40AF"/>
<path d="M87.0453 20.4775C82.7232 20.4775 80.3743 24.1446 80.3743 29.2011C80.3743 34.2577 82.7232 37.9248 87.0453 37.9248C91.3673 37.9248 93.7163 34.2577 93.7163 29.2011C93.7163 24.1446 91.3673 20.4775 87.0453 20.4775ZM87.042 35.359C85.0517 35.359 82.6025 31.4033 82.94 29.2011C83.2776 26.9989 84.4762 24.259 86.5321 24.259C88.7571 24.5886 90.684 26.9989 90.684 29.2011C90.684 31.4033 89.0946 35.359 87.042 35.359Z" fill="#1E40AF"/>
<path d="M73.0151 21.8857C70.6792 20.3265 67.662 20.1853 65.7095 20.8635C63.7569 21.5418 64.3318 26.7394 65.8316 24.3677C67.3314 21.996 70.7403 23.9708 71.4756 24.3677C72.2109 24.7646 73.0165 25.6095 73.0157 27.4467C73.0148 29.2838 70.7165 29.5678 68.2741 31.9916C65.8317 34.4153 65.7209 36.8247 65.7201 36.6093C65.7192 36.3938 65.3177 37.7097 66.7342 37.6356C68.9095 37.7097 76.3743 37.6356 76.3743 37.6356V34.7204C77.5746 34.7204 71.0709 34.9847 70.4491 34.9285C69.8273 34.8722 69.6804 34.7956 71.4754 33.389C71.8793 33.0725 73.8818 31.5594 74.9451 30.4521C76.0084 29.3448 76.0015 26.2939 75.9714 26.3469C76.343 25.5299 74.9589 23.1832 73.0151 21.8857Z" fill="#1E40AF"/>
<path d="M78.831 34.8457C78.1742 34.8457 77.8047 35.4972 77.8047 36.3852C77.8047 37.2731 78.1742 37.9246 78.831 37.9246C79.4878 37.9246 79.8573 37.2731 79.8573 36.3852C79.8573 35.4972 79.4878 34.8457 78.831 34.8457Z" fill="#1E40AF"/>
<path d="M81.4645 22.1957C82.1998 22.0828 82.6816 21.1525 82.5396 20.1147C82.3976 19.0769 81.6927 18.3241 80.9574 18.437C80.222 18.5499 79.7402 19.4802 79.8822 20.518C80.0242 21.5558 80.7291 22.3086 81.4645 22.1957Z" fill="#1E40AF"/>
<path d="M92.4325 21.9481C93.4498 22.4617 94.9898 21.4904 95.8667 19.7767C96.7435 18.063 96.6311 16.2544 95.6081 15.7408C94.5908 15.2273 93.0507 16.1986 92.1739 17.9123C91.2971 19.626 91.4095 21.4346 92.4325 21.9481Z" fill="#1E40AF"/>
<path d="M87.0048 19.8511C88.0301 19.9816 89.025 18.6387 89.2229 16.8554C89.4209 15.0667 88.7509 13.5172 87.7205 13.3867C86.6952 13.2562 85.7004 14.5991 85.5024 16.3824C85.3045 18.1711 85.9745 19.7206 87.0048 19.8511Z" fill="#1E40AF"/>
<path d="M98.0464 22.7526C97.4208 22.3013 96.3962 22.5621 95.749 23.3343C95.1019 24.1066 95.0857 25.0995 95.7059 25.5508C96.3315 26.0022 97.3561 25.7414 98.0033 24.9691C98.6504 24.1969 98.6666 23.204 98.0464 22.7526Z" fill="#1E40AF"/>
</svg>
